<?xml version="1.0" encoding="utf-8"?>
<!-- Generator: Adobe Illustrator 16.0.0, SVG Export Plug-In . SVG Version: 6.00 Build 0)  -->
<!DOCTYPE svg PUBLIC "-//W3C//DTD SVG 1.1//EN" "http://www.w3.org/Graphics/SVG/1.1/DTD/svg11.dtd">
<svg version="1.1" id="图层_1" xmlns="http://www.w3.org/2000/svg" xmlns:xlink="http://www.w3.org/1999/xlink" x="0px" y="0px"
	 width="5443px" height="5443px" viewBox="0 0 5443 5443" enable-background="new 0 0 5443 5443" xml:space="preserve">
<g>
	<linearGradient id="SVGID_1_" gradientUnits="userSpaceOnUse" x1="2916.4023" y1="2866.7422" x2="2849.6477" y2="5263.6353">
		<stop  offset="0.0485" style="stop-color:#E83828"/>
		<stop  offset="0.6909" style="stop-color:#C30D23"/>
		<stop  offset="0.9091" style="stop-color:#C30D23"/>
	</linearGradient>
	<path fill="url(#SVGID_1_)" d="M3952.216,1324.292c218.177,198.642,418.817,1055.869-411.463,981.303
		c-740.879-116.928-212.589-984.079-209.085-982.974C3732.581,631.857,3328.164,21,2603.563,21
		c574.991,384.284-59.327,858.898-273.076,1064.96c-199.862,158.752-1210.606,792.982-1410.573,1678.913
		c-54.373,184.906-83.751,380.453-83.751,582.934c0,1138.604,923.025,2061.545,2061.564,2061.545
		c986.05,0,1810.312-692.354,2013.4-1617.379C5126.96,2923.625,4758.505,1708.194,3952.216,1324.292z M2904.059,4374.857
		c-498.502,0-902.528-404.172-902.528-902.543c0-498.445,404.026-902.525,902.528-902.525c498.356,0,902.536,404.08,902.536,902.525
		C3806.595,3970.686,3402.415,4374.857,2904.059,4374.857z"/>
	<radialGradient id="SVGID_2_" cx="2223.0059" cy="1014.7222" r="767.7704" gradientUnits="userSpaceOnUse">
		<stop  offset="0.0909" style="stop-color:#E60012"/>
		<stop  offset="0.3091" style="stop-color:#E60012"/>
		<stop  offset="0.6242" style="stop-color:#E60012;stop-opacity:0.36"/>
		<stop  offset="0.9515" style="stop-color:#E60012;stop-opacity:0"/>
	</radialGradient>
	<path fill="url(#SVGID_2_)" d="M2601.492,21c575.018,384.284-46.9,853.328-273.049,1064.96
		c-89.797,71.394-343.135,238.479-613.091,481.443c-239.708,233.387-264.076,247.701-418.622,453.058
		c619.729-54.876,1510.879-207.995,1976.5-598.218c69.899-119.815,216-360.289,213.305-588.775
		C3511.256,367.375,3147.158,21,2601.492,21z"/>
	<linearGradient id="SVGID_3_" gradientUnits="userSpaceOnUse" x1="836.1216" y1="2999.9785" x2="3310.7607" y2="2999.9785">
		<stop  offset="0.2061" style="stop-color:#C30D23"/>
		<stop  offset="0.5939" style="stop-color:#D60E19"/>
		<stop  offset="0.9455" style="stop-color:#E83828;stop-opacity:0.74"/>
	</linearGradient>
	<path fill="url(#SVGID_3_)" d="M3310.761,1355.305c-773.351,613.943-2016.853,664.509-2018.681,664.569
		c-169.768,219.736-310.17,470.078-372.167,745c-54.421,184.906-83.751,380.453-83.751,582.934
		c-2.947,446.078,154.505,925.834,458.913,1296.846c-100.855-621.354-39.248-1162.322,407.141-1615.779
		c664.113-576.587,1264.68-672.221,1444.545-1099.934C3134.523,1654.761,3296.388,1383.509,3310.761,1355.305z"/>
</g>
</svg>
